<?xml version="1.0" encoding="UTF-8" standalone="no"?>
<svg
   width="473.20000000000005"
   height="86.8558587546545"
   viewBox="0 0 369.96969696969694 67.90793690511903"
   version="1.1"
   id="svg3"
   xmlns="http://www.w3.org/2000/svg"
   xmlns:svg="http://www.w3.org/2000/svg">
  <defs
     id="SvgjsDefs4875" />
  <g
     id="SvgjsG4876"
     featurekey="symbolFeature-0"
     transform="matrix(0.9278306812559239,0,0,0.9278306812559239,0.011666724712714537,0.000005677643061848515)"
     fill="#7c76bb">
    <title
       id="title1">inspect-icons-liny-export</title>
    <path
       d="M17.2,5a2.5,2.5,0,0,0,0-5A8.19,8.19,0,0,0,9,8.19c0,.06,0,.11,0,.17V25.09c0,.05,0,.1,0,.16,0,5.5-7.49,9.07-7.56,9.1a2.5,2.5,0,0,0,0,4.54C1.52,38.92,9,42.49,9,48c0,.05,0,.1,0,.16V64.88C9,64.94,9,65,9,65a8.19,8.19,0,0,0,8.19,8.19,2.5,2.5,0,0,0,0-5A3.19,3.19,0,0,1,14,65.17s0-.08,0-.12V48c0-.06,0-.12,0-.18-.08-5.22-3.77-9-6.75-11.19,3-2.2,6.66-6,6.75-11.19,0-.06,0-.12,0-.18V8.19s0-.08,0-.12A3.19,3.19,0,0,1,17.2,5Z"
       id="path1" />
    <path
       d="M55.7,34.35c-.08,0-7.57-3.6-7.57-9.1,0-.05,0-.1,0-.16V8.35c0-.05,0-.11,0-.17A8.19,8.19,0,0,0,39.94,0a2.5,2.5,0,0,0,0,5,3.19,3.19,0,0,1,3.18,3.06s0,.08,0,.12V25.25c0,.06,0,.12,0,.18.08,5.22,3.77,9,6.75,11.19-3,2.2-6.66,6-6.75,11.19,0,.06,0,.12,0,.18V65s0,.08,0,.12a3.19,3.19,0,0,1-3.18,3.06,2.5,2.5,0,0,0,0,5A8.19,8.19,0,0,0,48.13,65c0-.06,0-.11,0-.17V48.14c0-.05,0-.1,0-.16,0-5.5,7.49-9.07,7.56-9.1a2.5,2.5,0,0,0,0-4.54Z"
       id="path2" />
  </g>
  <g
     id="SvgjsG4877"
     featurekey="nameFeature-0"
     transform="matrix(0.919638562557397,0,0,0.919638562557397,70.70090447064219,10.288618147569546)"
     fill="#40514e">
    <path
       d="M12.9 36.5 c2.12 0 3.84 -0.88 5 -2.36 c0.24 -0.3 0.48 -0.36 0.8 -0.16 l2.3 1.34 c0.32 0.2 0.44 0.48 0.2 0.8 c-1.72 2.64 -4.76 4.4 -8.38 4.4 c-5.96 0 -10.32 -4.46 -10.32 -10.28 s4.36 -10.28 10.32 -10.28 c3.62 0 6.66 1.76 8.38 4.4 c0.24 0.32 0.12 0.6 -0.2 0.8 l-2.3 1.34 c-0.32 0.2 -0.56 0.14 -0.8 -0.16 c-1.16 -1.48 -2.88 -2.38 -5 -2.38 c-3.56 0 -6.2 2.56 -6.2 6.28 s2.64 6.26 6.2 6.26 z M36.44 40.52 c-5.7 0 -10.3 -4.52 -10.3 -10.28 c0 -5.74 4.6 -10.28 10.3 -10.28 c5.68 0 10.28 4.54 10.28 10.28 c0 5.76 -4.6 10.28 -10.28 10.28 z M36.44 36.5 c3.44 0 6.1 -2.8 6.1 -6.26 c0 -3.44 -2.66 -6.28 -6.1 -6.28 c-3.46 0 -6.12 2.84 -6.12 6.28 c0 3.46 2.66 6.26 6.12 6.26 z M70.94 12 c0.36 0 0.6 0.24 0.6 0.6 l0 26.8 c0 0.36 -0.24 0.6 -0.6 0.6 l-2.82 0 c-0.36 0 -0.56 -0.24 -0.6 -0.6 l-0.14 -1.84 c-1.48 1.74 -3.62 2.96 -6.54 2.96 c-5.6 0 -9.12 -4.48 -9.12 -10.28 s3.42 -10.28 9.12 -10.28 c3.16 0 5.04 1.5 6 3.32 l0.38 0 l0 -10.68 c0 -0.36 0.24 -0.6 0.6 -0.6 l3.12 0 z M61.68 36.56 c3.54 0 5.74 -2.6 5.74 -6.36 s-2.2 -6.28 -5.74 -6.28 c-3.62 0 -5.78 2.52 -5.78 6.28 s2.16 6.36 5.78 6.36 z M87.24 19.96 c5.92 0 9.48 4.54 9.48 9.78 c0 1.48 -0.18 2.22 -1.3 2.22 l-13.98 0 c0.46 3.04 3 5 6.62 5 c2.1 0 3.56 -0.64 4.9 -1.66 c0.32 -0.24 0.56 -0.3 0.86 0 l1.32 1.32 c0.3 0.3 0.32 0.58 0 0.9 c-1.9 1.9 -4.38 3 -7.52 3 c-6.24 0 -10.38 -4.52 -10.38 -10.28 s4.14 -10.28 10 -10.28 z M87.25999999999999 23.66 c-3.06 0 -5.34 2 -5.78 5.18 l11.44 0 c-0.32 -3.14 -2.54 -5.18 -5.66 -5.18 z M136.54 12 c0.36 0 0.6 0.24 0.6 0.6 l0 26.8 c0 0.36 -0.24 0.6 -0.6 0.6 l-2.82 0 c-0.36 0 -0.56 -0.24 -0.6 -0.6 l-0.14 -1.84 c-1.48 1.74 -3.62 2.96 -6.54 2.96 c-5.6 0 -9.12 -4.48 -9.12 -10.28 s3.42 -10.28 9.12 -10.28 c3.16 0 5.04 1.5 6 3.32 l0.38 0 l0 -10.68 c0 -0.36 0.24 -0.6 0.6 -0.6 l3.12 0 z M127.28 36.56 c3.54 0 5.74 -2.6 5.74 -6.36 s-2.2 -6.28 -5.74 -6.28 c-3.62 0 -5.78 2.52 -5.78 6.28 s2.16 6.36 5.78 6.36 z M152.84 19.96 c5.92 0 9.48 4.54 9.48 9.78 c0 1.48 -0.18 2.22 -1.3 2.22 l-13.98 0 c0.46 3.04 3 5 6.62 5 c2.1 0 3.56 -0.64 4.9 -1.66 c0.32 -0.24 0.56 -0.3 0.86 0 l1.32 1.32 c0.3 0.3 0.32 0.58 0 0.9 c-1.9 1.9 -4.38 3 -7.52 3 c-6.24 0 -10.38 -4.52 -10.38 -10.28 s4.14 -10.28 10 -10.28 z M152.86 23.66 c-3.06 0 -5.34 2 -5.78 5.18 l11.44 0 c-0.32 -3.14 -2.54 -5.18 -5.66 -5.18 z M178.68 19.98 c5.68 0 8.98 4.46 8.98 10.26 s-3.38 10.26 -8.98 10.26 c-2.9 0 -5.04 -1.22 -6.48 -3 l-0.16 1.9 c-0.04 0.36 -0.24 0.6 -0.6 0.6 l-2.82 0 c-0.36 0 -0.6 -0.24 -0.6 -0.6 l0 -26.8 c0 -0.36 0.24 -0.6 0.6 -0.6 l3.12 0 c0.36 0 0.6 0.24 0.6 0.6 l0 10.68 l0.4 0 c1.08 -1.82 2.94 -3.3 5.94 -3.3 z M177.82 36.54 c3.74 0 5.66 -2.58 5.66 -6.34 s-1.92 -6.26 -5.66 -6.26 c-3.4 0 -5.52 2.5 -5.52 6.26 s2.12 6.34 5.52 6.34 z M212.14 36.7 c0.22 0.26 0.26 0.56 0.04 0.82 c-0.84 1.04 -3.02 2.8 -6.6 2.8 c-4.1 0 -7.96 -1.52 -7.96 -7.94 l0 -8.36 l-4.96 0 c-0.36 0 -0.6 -0.24 -0.6 -0.6 l0 -2.42 c0 -0.36 0.24 -0.6 0.6 -0.6 l4.96 0 l0 -5.2 c0 -0.36 0.24 -0.6 0.6 -0.6 l3.12 0 c0.36 0 0.6 0.24 0.6 0.6 l0 5.2 l7.9 0 c0.36 0 0.6 0.24 0.6 0.6 l0 2.42 c0 0.36 -0.24 0.6 -0.6 0.6 l-7.9 0 l0 7.9 c0 3.74 2.16 4.52 4.38 4.52 c1.66 0 2.86 -0.72 3.64 -1.34 c0.28 -0.26 0.6 -0.24 0.84 0.04 z M251.64 20.4 c0.36 0 0.6 0.24 0.6 0.6 l0 2.38 c0 0.36 -0.24 0.6 -0.6 0.6 l-9.58 0 l0 15.42 c0 0.36 -0.24 0.6 -0.6 0.6 l-3.12 0 c-0.36 0 -0.6 -0.24 -0.6 -0.6 l0 -15.42 l-5.1 0 c-0.36 0 -0.6 -0.24 -0.6 -0.6 l0 -2.38 c0 -0.36 0.24 -0.6 0.6 -0.6 l5.1 0 l0 -1.96 c0 -6.24 4.16 -7.88 8.78 -7.88 c2.34 0 5.52 0.44 5.52 1.3 l0 2.26 c0 0.4 -0.28 0.64 -0.72 0.56 c-0.48 -0.08 -1.56 -0.46 -3.82 -0.46 c-2.92 0 -5.44 0.86 -5.44 4.62 l0 1.56 l9.58 0 z M269.16 19.96 c4.32 0 7.5 2.64 7.5 7.62 c0 0.38 -0.2 0.6 -0.58 0.64 l-3.12 0.44 c-0.38 0.06 -0.6 -0.16 -0.64 -0.54 c-0.18 -2.92 -1.98 -4.14 -4.54 -4.14 c-4.04 0 -5.92 3.38 -5.92 4.58 l0 10.84 c0 0.36 -0.24 0.6 -0.6 0.6 l-3.12 0 c-0.36 0 -0.6 -0.24 -0.6 -0.6 l0 -18.4 c0 -0.36 0.24 -0.6 0.6 -0.6 l2.96 0 c0.36 0 0.56 0.24 0.6 0.6 l0.16 2.64 l0.44 0 c1.28 -1.88 3.66 -3.68 6.86 -3.68 z M291.46 19.96 c5.92 0 9.48 4.54 9.48 9.78 c0 1.48 -0.18 2.22 -1.3 2.22 l-13.98 0 c0.46 3.04 3 5 6.62 5 c2.1 0 3.56 -0.64 4.9 -1.66 c0.32 -0.24 0.56 -0.3 0.86 0 l1.32 1.32 c0.3 0.3 0.32 0.58 0 0.9 c-1.9 1.9 -4.38 3 -7.52 3 c-6.24 0 -10.38 -4.52 -10.38 -10.28 s4.14 -10.28 10 -10.28 z M291.47999999999996 23.66 c-3.06 0 -5.34 2 -5.78 5.18 l11.44 0 c-0.32 -3.14 -2.54 -5.18 -5.66 -5.18 z M315.94 19.96 c5.92 0 9.48 4.54 9.48 9.78 c0 1.48 -0.18 2.22 -1.3 2.22 l-13.98 0 c0.46 3.04 3 5 6.62 5 c2.1 0 3.56 -0.64 4.9 -1.66 c0.32 -0.24 0.56 -0.3 0.86 0 l1.32 1.32 c0.3 0.3 0.32 0.58 0 0.9 c-1.9 1.9 -4.38 3 -7.52 3 c-6.24 0 -10.38 -4.52 -10.38 -10.28 s4.14 -10.28 10 -10.28 z M315.96 23.66 c-3.06 0 -5.34 2 -5.78 5.18 l11.44 0 c-0.32 -3.14 -2.54 -5.18 -5.66 -5.18 z"
       id="path3" />
  </g>
</svg>