<?xml version="1.0" encoding="UTF-8" standalone="no"?>
<svg
   width="178.2"
   height="86.855858"
   viewBox="0 0 139.32477 67.907937"
   version="1.1"
   id="svg3"
   xmlns="http://www.w3.org/2000/svg"
   xmlns:svg="http://www.w3.org/2000/svg">
  <defs
     id="SvgjsDefs4875" />
  <g
     id="SvgjsG4876"
     featurekey="symbolFeature-0"
     transform="matrix(0.92783068,0,0,0.92783068,0.01166672,5.6776431e-6)"
     fill="#7c76bb">
    <title
       id="title1">inspect-icons-liny-export</title>
    <path
       d="M 17.2,5 A 2.5,2.5 0 0 0 17.2,0 8.19,8.19 0 0 0 9,8.19 C 9,8.25 9,8.3 9,8.36 v 16.73 c 0,0.05 0,0.1 0,0.16 0,5.5 -7.49,9.07 -7.56,9.1 a 2.5,2.5 0 0 0 0,4.54 C 1.52,38.92 9,42.49 9,48 c 0,0.05 0,0.1 0,0.16 V 64.88 C 9,64.94 9,65 9,65 a 8.19,8.19 0 0 0 8.19,8.19 2.5,2.5 0 0 0 0,-5 A 3.19,3.19 0 0 1 14,65.17 c 0,0 0,-0.08 0,-0.12 V 48 c 0,-0.06 0,-0.12 0,-0.18 -0.08,-5.22 -3.77,-9 -6.75,-11.19 3,-2.2 6.66,-6 6.75,-11.19 0,-0.06 0,-0.12 0,-0.18 V 8.19 c 0,0 0,-0.08 0,-0.12 A 3.19,3.19 0 0 1 17.2,5 Z"
       id="path1" />
    <path
       d="m 55.7,34.35 c -0.08,0 -7.57,-3.6 -7.57,-9.1 0,-0.05 0,-0.1 0,-0.16 V 8.35 c 0,-0.05 0,-0.11 0,-0.17 A 8.19,8.19 0 0 0 39.94,0 a 2.5,2.5 0 0 0 0,5 3.19,3.19 0 0 1 3.18,3.06 c 0,0 0,0.08 0,0.12 v 17.07 c 0,0.06 0,0.12 0,0.18 0.08,5.22 3.77,9 6.75,11.19 -3,2.2 -6.66,6 -6.75,11.19 0,0.06 0,0.12 0,0.18 V 65 c 0,0 0,0.08 0,0.12 a 3.19,3.19 0 0 1 -3.18,3.06 2.5,2.5 0 0 0 0,5 8.19,8.19 0 0 0 8.19,-8.18 c 0,-0.06 0,-0.11 0,-0.17 V 48.14 c 0,-0.05 0,-0.1 0,-0.16 0,-5.5 7.49,-9.07 7.56,-9.1 a 2.5,2.5 0 0 0 0,-4.54 z"
       id="path2" />
  </g>
  <g
     id="SvgjsG4877"
     featurekey="nameFeature-0"
     transform="matrix(0.91963856,0,0,0.91963856,70.700904,10.288618)"
     fill="#40514e">
    <path
       d="m 73.105286,20.4 c 0.36,0 0.6,0.24 0.6,0.6 v 2.38 c 0,0.36 -0.24,0.6 -0.6,0.6 H 63.525262 V 39.4 c 0,0.36 -0.24,0.6 -0.6,0.6 h -3.120008 c -0.36,0 -0.6,-0.24 -0.6,-0.6 V 23.98 h -5.100012 c -0.360004,0 -0.600004,-0.24 -0.600004,-0.6 V 21 c 0,-0.36 0.24,-0.6 0.600004,-0.6 h 5.100012 v -1.96 c 0,-6.24 4.160008,-7.88 8.78002,-7.88 2.340004,0 5.520012,0.44 5.520012,1.3 v 2.26 c 0,0.4 -0.28,0.64 -0.720004,0.56 -0.48,-0.08 -1.56,-0.46 -3.820008,-0.46 -2.920004,0 -5.440012,0.86 -5.440012,4.62 v 1.56 z"
       id="path3"
       style="display:inline" />
    <path
       d="m 47.135324,12 c 0.36,0 0.6,0.24 0.6,0.6 v 26.8 c 0,0.36 -0.24,0.6 -0.6,0.6 h -2.82 c -0.36,0 -0.56,-0.24 -0.6,-0.6 l -0.14,-1.84 c -1.48,1.74 -3.62,2.96 -6.54,2.96 -5.6,0 -9.12,-4.48 -9.12,-10.28 0,-5.8 3.42,-10.28 9.12,-10.28 3.16,0 5.04,1.5 6,3.32 h 0.38 V 12.6 c 0,-0.36 0.24,-0.6 0.6,-0.6 z m -9.26,24.56 c 3.54,0 5.74,-2.6 5.74,-6.36 0,-3.76 -2.2,-6.28 -5.74,-6.28 -3.62,0 -5.78,2.52 -5.78,6.28 0,3.76 2.16,6.36 5.78,6.36 z"
       id="path5"
       style="display:inline" />
    <path
       d="m 12.9,36.5 c 2.12,0 3.84,-0.88 5,-2.36 0.24,-0.3 0.48,-0.36 0.8,-0.16 l 2.3,1.34 c 0.32,0.2 0.44,0.48 0.2,0.8 -1.72,2.64 -4.76,4.4 -8.38,4.4 -5.96,0 -10.32,-4.46 -10.32,-10.28 0,-5.82 4.36,-10.28 10.32,-10.28 3.62,0 6.66,1.76 8.38,4.4 0.24,0.32 0.12,0.6 -0.2,0.8 l -2.3,1.34 c -0.32,0.2 -0.56,0.14 -0.8,-0.16 -1.16,-1.48 -2.88,-2.38 -5,-2.38 -3.56,0 -6.2,2.56 -6.2,6.28 0,3.72 2.64,6.26 6.2,6.26 z"
       id="path4"
       style="display:inline" />
  </g>
</svg>
